<svg aria-hidden="true" focusable="false" class="fl-none" width="18" height="21" viewBox="0 0 18 21" xmlns="http://www.w3.org/2000/svg" data-testid="app-download-button-ios-icon"><path d="M11.9629 3.99527C12.6614 3.12166 13.1353 1.94866 13.0103 0.75C11.9879 0.80084 10.7402 1.42453 10.0179 2.29883C9.36928 3.04752 8.79523 4.26964 8.94488 5.41805C10.0926 5.51761 11.2393 4.84437 11.9629 3.99527Z"></path><path d="M12.9965 5.64239C11.3297 5.54311 9.91253 6.58837 9.11655 6.58837C8.32014 6.58837 7.10125 5.69242 5.78291 5.71657C4.06701 5.74178 2.47486 6.71196 1.60411 8.255C-0.186862 11.3418 1.13147 15.9207 2.8731 18.4348C3.71888 19.6786 4.73818 21.0481 6.08126 20.9989C7.35026 20.9491 7.84765 20.1772 9.39016 20.1772C10.9315 20.1772 11.3796 20.9989 12.7229 20.974C14.1159 20.9491 14.9868 19.7296 15.8326 18.4846C16.8029 17.0667 17.2 15.6977 17.225 15.6225C17.2 15.5976 14.5388 14.5767 14.5142 11.5155C14.489 8.95236 16.6035 7.73317 16.703 7.65756C15.509 5.89155 13.6433 5.69242 12.9965 5.64239Z"></path></svg>